<?xml version="1.0" standalone="no"?><!DOCTYPE svg PUBLIC "-//W3C//DTD SVG 1.1//EN" "http://www.w3.org/Graphics/SVG/1.1/DTD/svg11.dtd"><svg t="1667737621884" class="icon" viewBox="0 0 1024 1024" version="1.1" xmlns="http://www.w3.org/2000/svg" p-id="2554" xmlns:xlink="http://www.w3.org/1999/xlink" width="200" height="200"><path d="M369.664 973.312c-42.496 0-77.312-34.816-77.312-77.312V263.168c0-42.496 34.816-77.312 77.312-77.312h492.032c42.496 0 77.312 34.816 77.312 77.312v632.32c0 42.496-34.816 77.312-77.312 77.312H369.664z" fill="#FFBA40" p-id="2555"></path><path d="M861.696 209.92c29.184 0 53.76 24.064 53.76 53.76V896c0 29.184-24.064 53.76-53.76 53.76H369.664c-29.184 0-53.76-24.064-53.76-53.76V263.168c0-29.184 24.064-53.76 53.76-53.76h492.032m0-47.616H369.664c-55.808 0-101.376 45.568-101.376 101.376v632.32c0 55.808 45.568 101.376 101.376 101.376h492.032c55.808 0 101.376-45.568 101.376-101.376V263.168c0.512-55.808-45.056-101.376-101.376-101.376z" fill="#333333" p-id="2556"></path><path d="M369.664 884.736c-42.496 0-77.312-34.816-77.312-77.312V174.592c0-42.496 34.816-77.312 77.312-77.312h492.032c42.496 0 77.312 34.816 77.312 77.312v632.32c0 42.496-34.816 77.312-77.312 77.312H369.664z" fill="#FFBA40" p-id="2557"></path><path d="M861.696 121.344c29.184 0 53.76 24.064 53.76 53.76v632.32c0 29.184-24.064 53.76-53.76 53.76H369.664c-29.184 0-53.76-24.064-53.76-53.76V174.592c0-29.184 24.064-53.76 53.76-53.76h492.032m0-47.616H369.664c-55.808 0-101.376 45.568-101.376 101.376v632.32c0 55.808 45.568 101.376 101.376 101.376h492.032c55.808 0 101.376-45.568 101.376-101.376V174.592c0.512-55.808-45.056-101.376-101.376-101.376z" fill="#333333" p-id="2558"></path><path d="M583.168 342.528c-5.632 0-10.752-2.048-15.36-5.632L512 290.304l-55.808 46.592c-4.608 3.584-9.728 5.632-15.36 5.632-3.584 0-7.168-0.512-10.24-2.048-8.192-4.096-13.824-12.288-13.824-21.504V121.344c0-13.312 10.752-24.064 24.064-24.064h142.336c13.312 0 24.064 10.752 24.064 24.064v197.12c0 9.216-5.632 17.92-13.824 21.504-3.072 1.536-6.656 2.56-10.24 2.56z" fill="#27C18F" p-id="2559"></path><path d="M583.168 121.344v197.12L512 259.072 440.832 318.464V121.344h142.336m0-48.128H440.832c-26.624 0-48.128 21.504-48.128 48.128v197.12c0 18.432 10.752 35.328 27.648 43.52 6.656 3.072 13.312 4.608 20.48 4.608 11.264 0 22.016-3.584 30.72-11.264l40.448-33.792 40.448 33.792c8.704 7.168 19.968 11.264 30.72 11.264 6.656 0 13.824-1.536 20.48-4.608 16.896-7.68 27.648-25.088 27.648-43.52V121.344c0-26.624-21.504-48.128-48.128-48.128zM701.44 849.92c-13.312 0-24.064-10.752-24.064-24.064V506.88c0-19.968-16.384-36.352-36.352-36.352-19.968 0-36.352 16.384-36.352 36.352 0 13.312-10.752 24.064-24.064 24.064s-24.064-10.752-24.064-24.064c0-46.592 37.888-84.48 84.48-84.48s84.48 37.888 84.48 84.48v318.976c0 13.312-10.752 24.064-24.064 24.064zM108.544 849.92c-13.312 0-24.064-10.752-24.064-24.064V506.88c0-46.592 37.888-84.48 84.48-84.48S253.44 460.288 253.44 506.88c0 13.312-10.752 24.064-24.064 24.064s-24.064-10.752-24.064-24.064c0-19.968-16.384-36.352-36.352-36.352s-36.352 16.384-36.352 36.352v318.976c0 13.312-10.752 24.064-24.064 24.064z" fill="#333333" p-id="2560"></path><path d="M472.576 839.68c-13.312 0-24.064-10.752-24.064-24.064 0-24.064-19.456-43.52-43.52-43.52s-43.52 19.456-43.52 43.52c0 13.312-10.752 24.064-24.064 24.064s-24.064-10.752-24.064-24.064c0-50.688 40.96-91.648 91.648-91.648s91.648 40.96 91.648 91.648c0 13.312-10.752 24.064-24.064 24.064z" fill="#333333" p-id="2561"></path><path d="M220.16 973.312c-74.752 0-135.68-60.928-135.68-135.68s60.928-135.68 135.68-135.68 135.68 60.928 135.68 135.68-60.928 135.68-135.68 135.68z" fill="#27C18F" p-id="2562"></path><path d="M220.16 726.016c61.44 0 111.616 49.664 111.616 111.616 0 61.44-49.664 111.616-111.616 111.616s-111.616-49.664-111.616-111.616c0-61.44 50.176-111.616 111.616-111.616m0-47.616c-88.064 0-159.744 71.68-159.744 159.744s71.68 159.744 159.744 159.744 159.744-71.68 159.744-159.744-71.68-159.744-159.744-159.744z" fill="#333333" p-id="2563"></path><path d="M589.824 973.312c-74.752 0-135.68-60.928-135.68-135.68s60.928-135.68 135.68-135.68 135.68 60.928 135.68 135.68-60.928 135.68-135.68 135.68z" fill="#27C18F" p-id="2564"></path><path d="M589.824 726.016c61.44 0 111.616 49.664 111.616 111.616 0 61.44-49.664 111.616-111.616 111.616s-111.616-49.664-111.616-111.616c0.512-61.44 50.176-111.616 111.616-111.616m0-47.616c-88.064 0-159.744 71.68-159.744 159.744s71.68 159.744 159.744 159.744 159.744-71.68 159.744-159.744-71.68-159.744-159.744-159.744z" fill="#333333" p-id="2565"></path></svg>